<svg xmlns="http://www.w3.org/2000/svg" width="18" height="12.532" viewBox="0 0 18 12.532">
  <g id="ic-show" transform="translate(-1.742 -4.476)">
    <path id="Trazado_148278" data-name="Trazado 148278" d="M10.742,8.056a2.685,2.685,0,1,0,2.685,2.685A2.7,2.7,0,0,0,10.742,8.056Z" fill="#555"/>
    <path id="Trazado_148279" data-name="Trazado 148279" d="M10.742,4.476a9.387,9.387,0,0,0-8.905,5.983l-.095.283.094.283a9.388,9.388,0,0,0,8.906,5.983,9.387,9.387,0,0,0,8.905-5.983l.095-.283-.094-.283A9.388,9.388,0,0,0,10.742,4.476Zm0,10.742a7.472,7.472,0,0,1-7.1-4.476,7.473,7.473,0,0,1,7.1-4.476,7.472,7.472,0,0,1,7.1,4.476A7.473,7.473,0,0,1,10.742,15.218Z" fill="#555"/>
  </g>
</svg>
