<svg xmlns="http://www.w3.org/2000/svg" width="16.2" height="18" viewBox="0 0 16.2 18">
  <g id="ic-trash" transform="translate(-2.703 -1.8)">
    <path id="Trazado_148280" data-name="Trazado 148280" d="M15.3,18V7.2h-9V18ZM11.7,9h1.8v7.2H11.7ZM8.1,9H9.9v7.2H8.1Zm0-5.4h5.4V5.4H8.1Z" fill="none"/>
    <path id="Trazado_148281" data-name="Trazado 148281" d="M4.5,18a1.8,1.8,0,0,0,1.8,1.8h9A1.8,1.8,0,0,0,17.1,18V7.2h1.8V5.4H15.3V3.6a1.8,1.8,0,0,0-1.8-1.8H8.1A1.8,1.8,0,0,0,6.3,3.6V5.4H2.7V7.2H4.5V18ZM8.1,3.6h5.4V5.4H8.1ZM7.2,7.2h8.1V18h-9V7.2Z" fill="#555"/>
    <path id="Trazado_148282" data-name="Trazado 148282" d="M8.1,9H9.9v7.2H8.1Zm3.6,0h1.8v7.2H11.7Z" fill="#555"/>
  </g>
</svg>
